<svg xmlns:svg="http://www.w3.org/2000/svg" xmlns="http://www.w3.org/2000/svg" viewBox="5.821 8.467 217.146 46.939" height="46.939" width="217.146" xmlns:xlink="http://www.w3.org/1999/xlink"><defs><path d="m 956.41893,-5.9814347 -4.67056,1.2514712" fill="none" fill-rule="evenodd" stroke="#a7a9ac" stroke-width=".518" stroke-linecap="butt" stroke-linejoin="miter" stroke-miterlimit="4" stroke-dasharray="none" stroke-opacity="1" id="a"/><path d="m 956.9481,-5.2538306 -4.6966,2.711577" fill="none" fill-rule="evenodd" stroke="#a7a9ac" stroke-width=".518" stroke-linecap="butt" stroke-linejoin="miter" stroke-miterlimit="4" stroke-dasharray="none" stroke-opacity="1" id="b"/><path d="m 957.34497,-4.3939348 -4.7625,4.76249998" fill="none" fill-rule="evenodd" stroke="#a7a9ac" stroke-width=".518" stroke-linecap="butt" stroke-linejoin="miter" stroke-miterlimit="4" stroke-dasharray="none" stroke-opacity="1" id="c"/><path d="m 957.5434,-3.2694556 -2.434,4.21584432" fill="none" fill-rule="evenodd" stroke="#a7a9ac" stroke-width=".518" stroke-linecap="butt" stroke-linejoin="miter" stroke-miterlimit="4" stroke-dasharray="none" stroke-opacity="1" id="d"/><path d="m 962.30591,-5.7829972 0.0993,1.9843749 c 0,0 1.58751,1.4221355 2.51355,-0.033073 0,0 -0.0993,-0.8268214 -0.16541,-1.0914047" fill="none" fill-rule="evenodd" stroke="#000" stroke-width=".777" stroke-linecap="butt" stroke-linejoin="miter" stroke-miterlimit="4" stroke-dasharray="none" stroke-opacity="1" id="e"/><path d="m 962.28751,-5.7829972 -0.0993,1.9843749 c 0,0 -1.58751,1.4221355 -2.51355,-0.033073 0,0 0.0993,-0.8268214 0.16541,-1.0914047" fill="none" fill-rule="evenodd" stroke="#000" stroke-width=".777" stroke-linecap="butt" stroke-linejoin="miter" stroke-miterlimit="4" stroke-dasharray="none" stroke-opacity="1" id="f"/></defs><defs><clipPath id="g" clipPathUnits="userSpaceOnUse"><rect y="-1.484" x="934.657" height="12.832" width="26.194" fill="#e7e8e9" stroke="#a7a9ac" stroke-width=".529" stroke-linecap="square" stroke-dashoffset="6"/></clipPath></defs><g transform="translate(-1170.4453,517.6202)"><g transform="translate(0,-285.75012)"><g style="line-height:22.55517006px" aria-label="podman" font-weight="400" font-size="37.592" font-family="sans-serif" letter-spacing="0" word-spacing="0" fill="#892ca0" stroke-width=".265"><path style="-inkscape-font-specification:Montserrat" d="m 1249.8778,-209.9329 c -3.1202,0 -5.526,1.27812 -6.9921,3.60883 v -3.45846 h -4.3231 v 27.29175 h 4.3231 v -10.75129 c 1.4661,2.3307 3.8719,3.60882 7.0673,3.60882 5.7139,0 9.4731,-4.09752 9.4731,-10.07464 0,-6.0899 -3.8719,-10.22501 -9.5483,-10.22501 z m -0.9022,16.61564 c -3.5713,0 -6.0899,-2.66903 -6.0899,-6.541 0,-3.75919 2.5186,-6.46581 6.0899,-6.46581 3.5712,0 6.0899,2.74421 6.0899,6.46581 0,3.83438 -2.5187,6.541 -6.0899,6.541 z" font-family="Montserrat"/><path style="-inkscape-font-specification:Montserrat" d="m 1272.4964,-209.9329 c -6.2027,0 -10.4506,4.09752 -10.4506,10.14983 0,6.01471 4.2479,10.14982 10.4506,10.14982 6.1651,0 10.413,-4.13511 10.413,-10.14982 0,-6.05231 -4.2479,-10.14983 -10.413,-10.14983 z m 0,3.7216 c 3.5712,0 6.0899,2.63144 6.0899,6.46582 0,3.87197 -2.5187,6.50341 -6.0899,6.50341 -3.6088,0 -6.1275,-2.63144 -6.1275,-6.50341 0,-3.83438 2.5187,-6.46582 6.1275,-6.46582 z" font-family="Montserrat"/><path style="-inkscape-font-specification:Montserrat" d="m 1302.1564,-217.67684 v 11.35277 c -1.466,-2.33071 -3.8719,-3.64642 -7.1048,-3.64642 -5.6388,0 -9.5108,4.09752 -9.5108,10.11223 0,6.0899 3.8344,10.2626 9.5859,10.2626 3.1954,0 5.6012,-1.27812 7.0297,-3.60882 v 3.42086 h 4.3231 v -27.89322 z m -6.1275,24.47236 c -3.6464,0 -6.1274,-2.70662 -6.165,-6.50341 0.038,-3.83438 2.5562,-6.57859 6.165,-6.57859 3.6089,0 6.1275,2.70662 6.1275,6.57859 0,3.79679 -2.5186,6.50341 -6.1275,6.50341 z" font-family="Montserrat"/><path d="m 1339.1334,-209.9329 c -3.6464,0 -6.3154,1.46608 -7.5936,4.81177 -0.9398,-3.04495 -3.3832,-4.81177 -6.9545,-4.81177 -3.3081,0 -5.8643,1.20294 -7.2552,4.02234 v -3.87197 h -4.2855 v 19.99891 h 4.2855 v -9.88668 c 0,-3.49605 2.1051,-6.12749 5.5636,-6.24026 2.9322,0 4.699,1.842 4.699,4.88695 v 11.23999 h 4.3231 v -9.88668 c 0,-3.49605 2.0675,-6.12749 5.4884,-6.24026 2.9321,0 4.7366,1.842 4.7366,4.88695 v 11.23999 h 4.323 v -12.44293 c 0,-4.77418 -2.7442,-7.70635 -7.3304,-7.70635 z" fill="#60605b"/><path d="m 1368.4916,-189.78362 -0.038,-13.11959 c -0.038,-4.39826 -2.9322,-7.02969 -8.0823,-7.02969 -3.7968,0 -5.8268,0.86461 -8.6086,2.51866 l 1.7669,3.00736 c 1.9923,-1.35332 3.9847,-2.02997 5.9019,-2.02997 3.1577,0 4.7742,1.50368 4.7742,4.02234 v 0.60147 h -6.0523 c -4.8118,0.0376 -7.556,2.36829 -7.556,6.01471 0,3.53365 2.7066,6.20267 7.0297,6.20267 2.8946,0 5.1877,-0.86461 6.6162,-2.63143 v 2.44347 z m -9.9619,-3.2329 c -2.4059,0 -3.872,-1.16535 -3.872,-2.96977 0,-1.91719 1.3157,-2.66903 4.1351,-2.66903 h 5.4133 v 1.84201 c -0.2256,2.18033 -2.5939,3.79679 -5.6764,3.79679 z" fill="#60605b"/><path d="m 1385.9695,-209.9329 c -3.3833,0 -5.9396,1.20294 -7.3681,3.98474 v -3.83437 h -4.323 v 19.99891 h 4.323 v -10.63852 c 0.3008,-3.12013 2.3683,-5.41324 5.6764,-5.45083 3.0074,0 4.8118,1.842 4.8118,4.84936 v 11.23999 h 4.3231 v -12.44293 c 0,-4.77418 -2.7818,-7.70635 -7.4432,-7.70635 z" fill="#60605b"/></g></g><g transform="translate(-4.0076941e-7,-285.75012)"><g transform="translate(238.41304,-199.74894)"><path d="m 963.98321,-1.2653795 h 12.72207" fill="none" stroke="#3c6eb4" stroke-width="1.058"/><path d="m 966.09989,1.3804536 h 12.72207" fill="none" stroke="#3c6eb4" stroke-width="1.058"/><g transform="matrix(1.1500458,0,0,1.1510087,-143.9252,0.43908228)" stroke-width=".869"><path d="m 973.10356,3.3983398 c -2.30839,-3.74257021 -1.79145,-7.3525044 -2.88299,-12.510239 -0.59897,-3.1855248 -2.62142,-5.8149598 -5.25403,-6.7776908 -2.17189,-0.757647 -6.68263,-0.759955 -8.59472,0 -2.63261,0.962731 -4.65498,3.592166 -5.25395,6.7776908 -1.09155,5.1577346 -0.57458,8.76766879 -2.88297,12.510239" fill="#ccc" fill-rule="evenodd" stroke="#000" stroke-width=".69"/><ellipse cx="966.564" cy="-4.107" rx="1.116" ry="1.175" fill="#e7e8e9"/><ellipse ry="1.175" rx="1.116" cy="-4.107" cx="955.287" fill="#e7e8e9"/><g transform="matrix(0.88789899,0,0,0.88789899,108.02196,0.55783395)" stroke="#a7a9ac" stroke-width=".518"><use fill-rule="evenodd" xlink:href="#a"/><use fill-rule="evenodd" xlink:href="#b"/><use fill-rule="evenodd" xlink:href="#c"/><use fill-rule="evenodd" xlink:href="#d"/></g><g transform="matrix(-0.88789899,0,0,0.88789899,1814.1581,0.55783389)" stroke="#a7a9ac" stroke-width=".518"><use fill-rule="evenodd" xlink:href="#a"/><use fill-rule="evenodd" xlink:href="#b"/><use fill-rule="evenodd" xlink:href="#c"/><use fill-rule="evenodd" xlink:href="#d"/></g><ellipse cx="961.043" cy="-4.929" rx="3.583" ry="3.406" fill="#fff" stroke="#60605b" stroke-width=".69" stroke-linecap="square" stroke-dashoffset="6"/><ellipse transform="scale(-1,1)" cx="-966.527" cy="-7.841" rx="1.725" ry="1.769" stroke="#892ca0" stroke-width=".69" stroke-linecap="square"/><path d="m 968.07427,-11.544209 c -0.34474,-0.448317 -0.89334,-0.733231 -1.45836,-0.757402 -0.53344,-0.02282 -1.07281,0.185834 -1.45201,0.561706" fill="none" stroke="#000" stroke-width=".69" stroke-linecap="square"/><g transform="matrix(0.88789899,0,0,0.88789899,106.61242,0.08798743)" stroke-width=".777"><g transform="translate(0,-0.52916667)"><use fill-rule="evenodd" xlink:href="#e"/><use fill-rule="evenodd" xlink:href="#f"/></g></g><path d="m 962.57174,-5.5436767 c -0.1202,-0.3110186 -0.1202,-0.9330691 -0.48062,-0.9330691 -0.36047,0 -0.69372,-0.2332673 -1.04826,-0.2332673 -0.35456,0 -0.68781,0.2332673 -1.04828,0.2332673 -0.36046,0 -0.36046,0.6220505 -0.48061,0.9330691 -0.1202,0.3110253 1.52889,1.3218472 1.52889,1.3218472 0,0 1.64903,-1.0108219 1.52888,-1.3218472 z" fill="gray" stroke="#000" stroke-width=".69" stroke-linecap="square"/><ellipse ry="1.769" rx="1.725" cy="-7.841" cx="955.36" stroke="#892ca0" stroke-width=".69" stroke-linecap="square"/><ellipse cx="954.785" cy="-8.338" rx=".848" ry=".881" fill="#fff"/><path d="m 953.81353,-11.544209 c 0.34474,-0.448315 0.89333,-0.73323 1.45835,-0.757402 0.53344,-0.02282 1.07281,0.185833 1.45201,0.561706" fill="none" stroke="#000" stroke-width=".69" stroke-linecap="square"/><ellipse ry=".881" rx=".848" cy="-8.338" cx="967.053" fill="#fff"/></g><path d="m 948.21183,4.2931494 h 32.92765" fill="none" stroke="#3c6eb4" stroke-width="1.058"/><g transform="matrix(0.83048493,0,0,0.83048493,164.55035,-1.4237955)" clip-path="url(#g)" stroke-width="1.204"><path d="m 958.31594,13.737399 c -0.26199,-1.782196 -0.38924,-3.720848 -0.8727,-6.0017375 -0.53058,-2.8174518 -2.32212,-5.1430676 -4.65415,-5.9945597 -1.92393,-0.6701043 -5.91966,-0.6721461 -7.61343,0 -2.33204,0.8514921 -4.1235,3.1771079 -4.65409,5.9945597 -0.48346,2.2808895 -0.61071,4.2195415 -0.87269,6.0017375" fill="#ccc" fill-rule="evenodd" stroke="#000" stroke-width=".956"/><ellipse cx="954.204" cy="12.162" rx=".988" ry="1.039" fill="#e7e8e9"/><ellipse ry="1.039" rx=".988" cy="12.162" cx="944.215" fill="#e7e8e9"/><g transform="matrix(0.7865243,0,0,0.7853064,193.68501,16.288101)" stroke="#a7a9ac" stroke-width=".811"><use fill-rule="evenodd" xlink:href="#a"/><use fill-rule="evenodd" xlink:href="#b"/><use fill-rule="evenodd" xlink:href="#c"/><use fill-rule="evenodd" xlink:href="#d"/></g><g transform="matrix(-0.7865243,0,0,0.7853064,1705.0252,16.288101)" stroke="#a7a9ac" stroke-width=".811"><use fill-rule="evenodd" xlink:href="#a"/><use fill-rule="evenodd" xlink:href="#b"/><use fill-rule="evenodd" xlink:href="#c"/><use fill-rule="evenodd" xlink:href="#d"/></g><ellipse cx="949.313" cy="11.435" rx="3.174" ry="3.013" fill="#fff" stroke="#60605b" stroke-width=".956" stroke-linecap="square" stroke-dashoffset="6"/><ellipse transform="scale(-1,1)" cx="-954.172" cy="8.86" rx="1.528" ry="1.565" stroke="#892ca0" stroke-width=".956" stroke-linecap="square"/><path d="m 955.54199,5.5843938 c -0.30575,-0.3965787 -0.79155,-0.6484892 -1.29185,-0.6698876 -0.4724,-0.020205 -0.95006,0.1642901 -1.28623,0.4968037" fill="none" stroke="#000" stroke-width=".956" stroke-linecap="square"/><g transform="matrix(0.7865243,0,0,0.7853064,192.4364,15.872544)" stroke-width="1.216"><g transform="translate(0,-0.52916667)"><use fill-rule="evenodd" xlink:href="#e"/><use fill-rule="evenodd" xlink:href="#f"/></g></g><path d="m 950.66771,10.891591 c -0.10648,-0.275082 -0.10648,-0.825257 -0.42575,-0.825257 -0.31931,0 -0.61451,-0.2063147 -0.92858,-0.2063147 -0.31407,0 -0.60928,0.2063147 -0.92858,0.2063147 -0.31932,0 -0.31932,0.550175 -0.42575,0.825257 -0.10647,0.275088 1.35433,1.169114 1.35433,1.169114 0,0 1.46076,-0.894026 1.35433,-1.169114 z" fill="gray" stroke="#000" stroke-width=".956" stroke-linecap="square"/><ellipse ry="1.565" rx="1.528" cy="8.86" cx="944.28" stroke="#892ca0" stroke-width=".956" stroke-linecap="square"/><ellipse cx="943.77" cy="8.42" rx=".752" ry=".78" fill="#fff"/><path d="m 942.90945,5.5843938 c 0.30575,-0.3965787 0.79155,-0.6484892 1.29185,-0.6698876 0.4724,-0.020205 0.95006,0.1642901 1.28623,0.4968037" fill="none" stroke="#000" stroke-width=".956" stroke-linecap="square"/><ellipse ry=".78" rx=".752" cy="8.42" cx="954.637" fill="#fff"/></g><path d="m 961.97165,23.28467 -19.29817,-9.23285 -4.82036,-20.8616002 13.2871,-16.7806158 21.38926,-0.06408 13.38485,16.7011458 -4.69887,20.8897002 z" fill="none" stroke="#892ca0" stroke-width="1.058" stroke-linecap="round" stroke-linejoin="round"/><path d="m 943.44933,8.5264827 h 19.83144" fill="none" stroke="#3c6eb4" stroke-width="1.058"/><path d="m 952.87074,12.492952 h 27.50208" fill="none" stroke="#3c6eb4" stroke-width="1.058"/><g transform="translate(0.78045403,0.88370984)"><path d="m 977.46866,11.110796 c -0.23262,-1.5824091 -0.34561,-3.3037374 -0.77487,-5.3289381 -0.4711,-2.5016132 -2.06181,-4.566525 -4.13242,-5.32256411 -1.70825,-0.59498494 -5.25606,-0.59679785 -6.75995,0 -2.07062,0.75603911 -3.66125,2.82095091 -4.13236,5.32256411 -0.42927,2.0252007 -0.54225,3.746529 -0.77486,5.3289381" fill="#ccc" fill-rule="evenodd" stroke="#000" stroke-width=".794"/><ellipse ry=".922" rx=".878" cy="9.712" cx="973.817" fill="#e7e8e9"/><ellipse cx="964.948" cy="9.712" rx=".878" ry=".922" fill="#e7e8e9"/><g transform="matrix(0.69835413,0,0,0.69727276,299.02348,11.966021)" stroke="#a7a9ac" stroke-width=".758"><path d="m 955.74614,-3.9599306 -4.67056,1.2514712" fill="none"/><path d="m 956.27531,-3.2323265 -4.6966,2.71157695" fill="none"/></g><g transform="matrix(-0.69835413,0,0,0.69727276,1640.4712,13.375562)" stroke="#a7a9ac" stroke-width=".758"><use fill-rule="evenodd" xlink:href="#a"/><use fill-rule="evenodd" xlink:href="#b"/></g><ellipse ry="2.675" rx="2.818" cy="9.067" cx="969.475" fill="#fff" stroke="#60605b" stroke-width=".794" stroke-linecap="square" stroke-dashoffset="6"/><ellipse ry="1.389" rx="1.357" cy="6.78" cx="-973.789" transform="scale(-1,1)" stroke="#892ca0" stroke-width=".794" stroke-linecap="square"/><path d="m 975.00567,3.8717489 c -0.27147,-0.3521218 -0.70281,-0.575793 -1.14703,-0.5947926 -0.41945,-0.01794 -0.84356,0.1458731 -1.14204,0.4411116" fill="none" stroke="#000" stroke-width=".794" stroke-linecap="square"/><g transform="matrix(0.69835413,0,0,0.69727276,297.44499,13.006589)" stroke-width="1.137"><g transform="translate(0,-0.52916667)"><use fill-rule="evenodd" xlink:href="#e"/><use fill-rule="evenodd" xlink:href="#f"/></g></g><path d="m 970.6778,8.5840058 c -0.0945,-0.2442451 -0.0945,-0.7327449 -0.37802,-0.7327449 -0.28351,0 -0.54562,-0.1831865 -0.82448,-0.1831865 -0.27887,0 -0.54098,0.1831865 -0.82449,0.1831865 -0.28352,0 -0.28352,0.4884998 -0.37802,0.7327449 -0.0945,0.2442506 1.20251,1.0380563 1.20251,1.0380563 0,0 1.297,-0.7938057 1.2025,-1.0380563 z" fill="gray" stroke="#000" stroke-width=".794" stroke-linecap="square"/><ellipse cx="965.006" cy="6.78" rx="1.357" ry="1.389" stroke="#892ca0" stroke-width=".794" stroke-linecap="square"/><ellipse ry=".692" rx=".667" cy="6.389" cx="964.553" fill="#fff"/><path d="m 963.78925,3.8717489 c 0.27148,-0.3521208 0.70281,-0.5757916 1.14703,-0.5947926 0.41945,-0.017942 0.84357,0.1458717 1.14205,0.4411116" fill="none" stroke="#000" stroke-width=".794" stroke-linecap="square"/><ellipse cx="974.202" cy="6.389" rx=".667" ry=".692" fill="#fff"/></g><path d="m 950.75405,15.138787 h 12.72207" fill="none" stroke="#3c6eb4" stroke-width="1.058"/><path d="m 958.16237,17.784622 h 10.477" fill="none" stroke="#3c6eb4" stroke-width="1.058"/></g></g></g></svg>