<svg xmlns="http://www.w3.org/2000/svg" xmlns:xlink="http://www.w3.org/1999/xlink" width="217.146" height="46.939" viewBox="5.821 8.467 217.146 46.939"><defs><path id="a" fill="none" fill-rule="evenodd" stroke="#a7a9ac" stroke-dasharray="none" stroke-linecap="butt" stroke-linejoin="miter" stroke-miterlimit="4" stroke-opacity="1" stroke-width=".518" d="m956.419-5.981-4.67 1.251"/><path id="b" fill="none" fill-rule="evenodd" stroke="#a7a9ac" stroke-dasharray="none" stroke-linecap="butt" stroke-linejoin="miter" stroke-miterlimit="4" stroke-opacity="1" stroke-width=".518" d="m956.948-5.254-4.697 2.712"/><path id="c" fill="none" fill-rule="evenodd" stroke="#a7a9ac" stroke-dasharray="none" stroke-linecap="butt" stroke-linejoin="miter" stroke-miterlimit="4" stroke-opacity="1" stroke-width=".518" d="M957.345-4.394 952.582.37"/><path id="d" fill="none" fill-rule="evenodd" stroke="#a7a9ac" stroke-dasharray="none" stroke-linecap="butt" stroke-linejoin="miter" stroke-miterlimit="4" stroke-opacity="1" stroke-width=".518" d="M957.543-3.27 955.11.947"/><path id="e" fill="none" fill-rule="evenodd" stroke="#000" stroke-dasharray="none" stroke-linecap="butt" stroke-linejoin="miter" stroke-miterlimit="4" stroke-opacity="1" stroke-width=".777" d="m962.306-5.783.1 1.984s1.587 1.423 2.513-.033c0 0-.1-.827-.166-1.091"/><path id="f" fill="none" fill-rule="evenodd" stroke="#000" stroke-dasharray="none" stroke-linecap="butt" stroke-linejoin="miter" stroke-miterlimit="4" stroke-opacity="1" stroke-width=".777" d="m962.288-5.783-.1 1.984s-1.587 1.423-2.513-.033c0 0 .099-.827.165-1.091"/></defs><defs><clipPath id="g" clipPathUnits="userSpaceOnUse"><path fill="#e7e8e9" stroke="#a7a9ac" stroke-dashoffset="6" stroke-linecap="square" stroke-width=".529" d="M934.657-1.484h26.194v12.832h-26.194z"/></clipPath></defs><g fill="#892ca0" stroke-width=".265" aria-label="podman" font-family="sans-serif" font-size="37.592" font-weight="400" letter-spacing="0" style="line-height:22.55517006px" word-spacing="0"><path d="M1249.878-209.933c-3.12 0-5.526 1.278-6.992 3.609v-3.459h-4.323v27.292h4.323v-10.751c1.466 2.33 3.872 3.609 7.067 3.609 5.714 0 9.473-4.098 9.473-10.075 0-6.09-3.872-10.225-9.548-10.225m-.902 16.616c-3.572 0-6.09-2.67-6.09-6.541 0-3.76 2.518-6.466 6.09-6.466 3.57 0 6.09 2.744 6.09 6.466 0 3.834-2.52 6.54-6.09 6.54M1272.496-209.933c-6.202 0-10.45 4.098-10.45 10.15 0 6.015 4.248 10.15 10.45 10.15 6.165 0 10.413-4.135 10.413-10.15 0-6.052-4.248-10.15-10.413-10.15m0 3.722c3.572 0 6.09 2.631 6.09 6.466 0 3.871-2.518 6.503-6.09 6.503-3.608 0-6.127-2.632-6.127-6.503 0-3.835 2.519-6.466 6.127-6.466M1302.156-217.677v11.353c-1.466-2.33-3.871-3.646-7.104-3.646-5.64 0-9.511 4.097-9.511 10.112 0 6.09 3.834 10.262 9.586 10.262 3.195 0 5.6-1.278 7.03-3.608v3.42h4.323v-27.893zm-6.127 24.473c-3.646 0-6.127-2.707-6.165-6.504.038-3.834 2.556-6.578 6.165-6.578s6.127 2.706 6.127 6.578c0 3.797-2.518 6.504-6.127 6.504" font-family="Montserrat" style="-inkscape-font-specification:Montserrat" transform="translate(-1170.445 231.87)"/><path fill="#60605b" d="M168.688 21.937c-3.646 0-6.315 1.466-7.594 4.812-.94-3.045-3.383-4.812-6.954-4.812-3.308 0-5.864 1.203-7.255 4.023v-3.872h-4.286v19.998h4.286V32.2c0-3.496 2.105-6.128 5.563-6.24 2.933 0 4.7 1.842 4.7 4.886v11.24h4.322V32.2c0-3.496 2.068-6.128 5.489-6.24 2.932 0 4.736 1.842 4.736 4.886v11.24h4.323V29.644c0-4.775-2.744-7.707-7.33-7.707M198.046 42.086l-.038-13.12c-.038-4.397-2.932-7.029-8.082-7.029-3.797 0-5.827.865-8.609 2.519l1.767 3.007c1.993-1.353 3.985-2.03 5.902-2.03 3.158 0 4.774 1.504 4.774 4.023v.601h-6.052c-4.812.038-7.556 2.368-7.556 6.015 0 3.533 2.707 6.202 7.03 6.202 2.894 0 5.187-.864 6.616-2.631v2.443zm-9.962-3.232c-2.406 0-3.872-1.166-3.872-2.97 0-1.917 1.316-2.67 4.135-2.67h5.414v1.843c-.226 2.18-2.594 3.797-5.677 3.797M215.524 21.937c-3.383 0-5.94 1.203-7.368 3.985v-3.834h-4.323v19.998h4.323V31.448c.3-3.12 2.368-5.413 5.676-5.45 3.008 0 4.812 1.841 4.812 4.848v11.24h4.323V29.644c0-4.775-2.781-7.707-7.443-7.707"/></g><path fill="none" stroke="#3c6eb4" stroke-width="1.058" d="M31.95 30.856h12.723M34.068 33.502H46.79"/><g stroke-width=".869" transform="matrix(1.15005 0 0 1.151 -1075.957 32.56)"><path fill="#ccc" fill-rule="evenodd" stroke="#000" stroke-width=".69" d="M973.104 3.398c-2.309-3.742-1.792-7.352-2.883-12.51-.6-3.185-2.622-5.815-5.254-6.778-2.172-.757-6.683-.76-8.595 0-2.633.963-4.655 3.593-5.254 6.778-1.092 5.158-.575 8.768-2.883 12.51"/><ellipse cx="966.564" cy="-4.107" fill="#e7e8e9" rx="1.116" ry="1.175"/><ellipse cx="955.287" cy="-4.107" fill="#e7e8e9" rx="1.116" ry="1.175"/><g fill-rule="evenodd" stroke="#a7a9ac" stroke-width=".518" transform="matrix(.8879 0 0 .8879 108.022 .558)"><use xlink:href="#a"/><use xlink:href="#b"/><use xlink:href="#c"/><use xlink:href="#d"/></g><g fill-rule="evenodd" stroke="#a7a9ac" stroke-width=".518" transform="matrix(-.8879 0 0 .8879 1814.158 .558)"><use xlink:href="#a"/><use xlink:href="#b"/><use xlink:href="#c"/><use xlink:href="#d"/></g><ellipse cx="961.043" cy="-4.929" fill="#fff" stroke="#60605b" stroke-dashoffset="6" stroke-linecap="square" stroke-width=".69" rx="3.583" ry="3.406"/><ellipse cx="-966.527" cy="-7.841" stroke="#892ca0" stroke-linecap="square" stroke-width=".69" rx="1.725" ry="1.769" transform="scale(-1 1)"/><path fill="none" stroke="#000" stroke-linecap="square" stroke-width=".69" d="M968.074-11.544a1.97 1.97 0 0 0-1.458-.758 1.97 1.97 0 0 0-1.452.562"/><g fill-rule="evenodd" stroke-width=".777" transform="matrix(.8879 0 0 .8879 106.612 -.382)"><use xlink:href="#e"/><use xlink:href="#f"/></g><path fill="gray" stroke="#000" stroke-linecap="square" stroke-width=".69" d="M962.572-5.544c-.12-.31-.12-.933-.48-.933-.361 0-.695-.233-1.05-.233-.354 0-.687.233-1.047.233s-.36.622-.481.933c-.12.311 1.529 1.322 1.529 1.322s1.649-1.01 1.529-1.322z"/><ellipse cx="955.36" cy="-7.841" stroke="#892ca0" stroke-linecap="square" stroke-width=".69" rx="1.725" ry="1.769"/><ellipse cx="954.785" cy="-8.338" fill="#fff" rx=".848" ry=".881"/><path fill="none" stroke="#000" stroke-linecap="square" stroke-width=".69" d="M953.814-11.544a1.97 1.97 0 0 1 1.458-.758 1.97 1.97 0 0 1 1.452.562"/><ellipse cx="967.053" cy="-8.338" fill="#fff" rx=".848" ry=".881"/></g><path fill="none" stroke="#3c6eb4" stroke-width="1.058" d="M16.18 36.414h32.927"/><g stroke-width="1.204" clip-path="url(#g)" transform="matrix(.83048 0 0 .83048 -767.482 30.697)"><path fill="#ccc" fill-rule="evenodd" stroke="#000" stroke-width=".956" d="M958.316 13.737c-.262-1.782-.39-3.72-.873-6.001-.53-2.818-2.322-5.143-4.654-5.995-1.924-.67-5.92-.672-7.613 0-2.332.852-4.124 3.177-4.654 5.995-.484 2.28-.611 4.22-.873 6.001"/><ellipse cx="954.204" cy="12.162" fill="#e7e8e9" rx=".988" ry="1.039"/><ellipse cx="944.215" cy="12.162" fill="#e7e8e9" rx=".988" ry="1.039"/><g fill-rule="evenodd" stroke="#a7a9ac" stroke-width=".811" transform="matrix(.78652 0 0 .7853 193.685 16.288)"><use xlink:href="#a"/><use xlink:href="#b"/><use xlink:href="#c"/><use xlink:href="#d"/></g><g fill-rule="evenodd" stroke="#a7a9ac" stroke-width=".811" transform="matrix(-.78652 0 0 .7853 1705.025 16.288)"><use xlink:href="#a"/><use xlink:href="#b"/><use xlink:href="#c"/><use xlink:href="#d"/></g><ellipse cx="949.313" cy="11.435" fill="#fff" stroke="#60605b" stroke-dashoffset="6" stroke-linecap="square" stroke-width=".956" rx="3.174" ry="3.013"/><ellipse cx="-954.172" cy="8.86" stroke="#892ca0" stroke-linecap="square" stroke-width=".956" rx="1.528" ry="1.565" transform="scale(-1 1)"/><path fill="none" stroke="#000" stroke-linecap="square" stroke-width=".956" d="M955.542 5.584a1.75 1.75 0 0 0-1.292-.67c-.472-.02-.95.165-1.286.497"/><g fill-rule="evenodd" stroke-width="1.216" transform="matrix(.78652 0 0 .7853 192.436 15.457)"><use xlink:href="#e"/><use xlink:href="#f"/></g><path fill="gray" stroke="#000" stroke-linecap="square" stroke-width=".956" d="M950.668 10.892c-.107-.275-.107-.826-.426-.826-.32 0-.615-.206-.929-.206s-.609.206-.928.206-.32.55-.426.826 1.354 1.169 1.354 1.169 1.461-.894 1.355-1.17z"/><ellipse cx="944.28" cy="8.86" stroke="#892ca0" stroke-linecap="square" stroke-width=".956" rx="1.528" ry="1.565"/><ellipse cx="943.77" cy="8.42" fill="#fff" rx=".752" ry=".78"/><path fill="none" stroke="#000" stroke-linecap="square" stroke-width=".956" d="M942.91 5.584a1.75 1.75 0 0 1 1.291-.67c.473-.02.95.165 1.287.497"/><ellipse cx="954.637" cy="8.42" fill="#fff" rx=".752" ry=".78"/></g><path fill="none" stroke="#892ca0" stroke-linecap="round" stroke-linejoin="round" stroke-width="1.058" d="M29.94 55.406 10.64 46.173l-4.82-20.862 13.287-16.78 21.39-.064 13.384 16.7-4.699 20.89z"/><path fill="none" stroke="#3c6eb4" stroke-width="1.058" d="M11.417 40.648H31.25M20.838 44.614h27.503"/><g transform="translate(-931.252 33.005)"><path fill="#ccc" fill-rule="evenodd" stroke="#000" stroke-width=".794" d="M977.469 11.11c-.233-1.582-.346-3.303-.775-5.328-.471-2.502-2.062-4.567-4.133-5.323-1.708-.595-5.256-.597-6.76 0-2.07.756-3.66 2.821-4.132 5.323-.43 2.025-.542 3.746-.775 5.329"/><ellipse cx="973.817" cy="9.712" fill="#e7e8e9" rx=".878" ry=".922"/><ellipse cx="964.948" cy="9.712" fill="#e7e8e9" rx=".878" ry=".922"/><g fill="none" stroke="#a7a9ac" stroke-width=".758"><path d="m955.746-3.96-4.67 1.252M956.275-3.232 951.58-.521" transform="matrix(.69835 0 0 .69727 299.023 11.966)"/></g><g fill-rule="evenodd" stroke="#a7a9ac" stroke-width=".758" transform="matrix(-.69835 0 0 .69727 1640.471 13.376)"><use xlink:href="#a"/><use xlink:href="#b"/></g><ellipse cx="969.475" cy="9.067" fill="#fff" stroke="#60605b" stroke-dashoffset="6" stroke-linecap="square" stroke-width=".794" rx="2.818" ry="2.675"/><ellipse cx="-973.789" cy="6.78" stroke="#892ca0" stroke-linecap="square" stroke-width=".794" rx="1.357" ry="1.389" transform="scale(-1 1)"/><path fill="none" stroke="#000" stroke-linecap="square" stroke-width=".794" d="M975.006 3.872a1.55 1.55 0 0 0-1.147-.595 1.55 1.55 0 0 0-1.142.441"/><g fill-rule="evenodd" stroke-width="1.137" transform="matrix(.69835 0 0 .69727 297.445 12.638)"><use xlink:href="#e"/><use xlink:href="#f"/></g><path fill="gray" stroke="#000" stroke-linecap="square" stroke-width=".794" d="M970.678 8.584c-.095-.244-.095-.733-.378-.733s-.546-.183-.825-.183-.54.183-.824.183-.284.489-.378.733 1.202 1.038 1.202 1.038 1.297-.794 1.203-1.038z"/><ellipse cx="965.006" cy="6.78" stroke="#892ca0" stroke-linecap="square" stroke-width=".794" rx="1.357" ry="1.389"/><ellipse cx="964.553" cy="6.389" fill="#fff" rx=".667" ry=".692"/><path fill="none" stroke="#000" stroke-linecap="square" stroke-width=".794" d="M963.79 3.872a1.55 1.55 0 0 1 1.146-.595c.42-.018.844.146 1.142.441"/><ellipse cx="974.202" cy="6.389" fill="#fff" rx=".667" ry=".692"/></g><path fill="none" stroke="#3c6eb4" stroke-width="1.058" d="M18.722 47.26h12.722M26.13 49.906h10.477"/></svg>