<?xml version="1.0" standalone="no"?>
<!DOCTYPE svg PUBLIC "-//W3C//DTD SVG 20010904//EN"
 "http://www.w3.org/TR/2001/REC-SVG-20010904/DTD/svg10.dtd">
<svg version="1.0" xmlns="http://www.w3.org/2000/svg"
 width="700.000000pt" height="700.000000pt" viewBox="0 0 700.000000 700.000000"
 preserveAspectRatio="xMidYMid meet">
<metadata>
Created by potrace 1.14, written by Peter Selinger 2001-2017
</metadata>
<g transform="translate(0.000000,700.000000) scale(0.100000,-0.100000)"
fill="#000000" stroke="none">
<path d="M0 6292 l0 -707 695 0 c382 0 696 -2 696 -5 1 -3 3 -312 3 -687 l2
-683 -698 0 -698 0 2 -1407 3 -1408 685 -1 c377 -1 690 -2 696 -3 7 -1 10
-217 10 -696 l-1 -695 708 0 707 0 0 28 c0 15 0 327 0 693 0 523 3 668 13 671
6 3 316 4 687 4 l675 -1 2 -665 c1 -366 3 -680 3 -697 l0 -33 708 0 707 0 0
697 0 698 690 1 c380 1 693 2 698 3 4 1 7 633 7 1406 l0 1405 -698 0 -697 0 0
688 -1 687 696 0 695 0 3 708 2 707 -1405 0 -1405 0 0 -22 c0 -13 -1 -327 -3
-698 l-2 -675 -687 0 -687 -1 0 626 c-1 344 -1 658 -1 698 l0 72 -1405 0
-1405 0 0 -708z m4188 -2790 l-3 -687 -687 -3 -687 -2 0 690 0 689 690 0 689
1 -2 -688z m-1400 -1399 l2 -688 -677 0 c-373 0 -682 3 -688 7 -7 4 -9 240 -9
680 1 370 2 676 3 680 1 9 410 14 961 11 l405 -2 3 -688z m2632 687 l165 0 0
-685 c0 -602 -2 -685 -15 -686 -8 -1 -318 -2 -687 -3 l-673 -1 0 45 c-1 42 0
1083 0 1252 l0 77 123 3 c67 2 302 2 522 1 220 -2 474 -3 565 -3z"/>
</g>
</svg>
